<svg width="28" height="28" viewBox="0 0 28 28" fill="none" xmlns="http://www.w3.org/2000/svg">
<path d="M17.5 14C17.5 14.6922 17.2947 15.3689 16.9101 15.9445C16.5256 16.5201 15.9789 16.9687 15.3394 17.2336C14.6999 17.4985 13.9961 17.5678 13.3172 17.4327C12.6383 17.2977 12.0146 16.9644 11.5251 16.4749C11.0356 15.9854 10.7023 15.3618 10.5673 14.6828C10.4322 14.0039 10.5015 13.3001 10.7664 12.6606C11.0313 12.0211 11.4799 11.4744 12.0555 11.0899C12.6311 10.7053 13.3078 10.5 14 10.5C14.9283 10.5 15.8185 10.8687 16.4749 11.5251C17.1313 12.1815 17.5 13.0717 17.5 14Z" fill="black" fill-opacity="0.04"/>
<path d="M13.5 8.5V7C13.5 6.86739 13.5527 6.74021 13.6464 6.64645C13.7402 6.55268 13.8674 6.5 14 6.5C14.1326 6.5 14.2598 6.55268 14.3536 6.64645C14.4473 6.74021 14.5 6.86739 14.5 7V8.5C14.5 8.63261 14.4473 8.75979 14.3536 8.85355C14.2598 8.94732 14.1326 9 14 9C13.8674 9 13.7402 8.94732 13.6464 8.85355C13.5527 8.75979 13.5 8.63261 13.5 8.5ZM18 14C18 14.7911 17.7654 15.5645 17.3259 16.2223C16.8864 16.8801 16.2616 17.3928 15.5307 17.6955C14.7998 17.9983 13.9956 18.0775 13.2196 17.9231C12.4437 17.7688 11.731 17.3878 11.1716 16.8284C10.6122 16.269 10.2312 15.5563 10.0769 14.7804C9.92252 14.0044 10.0017 13.2002 10.3045 12.4693C10.6072 11.7384 11.1199 11.1136 11.7777 10.6741C12.4355 10.2346 13.2089 10 14 10C15.0605 10.0012 16.0773 10.423 16.8271 11.1729C17.577 11.9227 17.9988 12.9395 18 14ZM17 14C17 13.4067 16.8241 12.8266 16.4944 12.3333C16.1648 11.8399 15.6962 11.4554 15.1481 11.2284C14.5999 11.0013 13.9967 10.9419 13.4147 11.0576C12.8328 11.1734 12.2982 11.4591 11.8787 11.8787C11.4591 12.2982 11.1734 12.8328 11.0576 13.4147C10.9419 13.9967 11.0013 14.5999 11.2284 15.1481C11.4554 15.6962 11.8399 16.1648 12.3333 16.4944C12.8266 16.8241 13.4067 17 14 17C14.7954 16.9992 15.558 16.6828 16.1204 16.1204C16.6828 15.558 16.9992 14.7954 17 14ZM9.64625 10.3538C9.74007 10.4476 9.86732 10.5003 10 10.5003C10.1327 10.5003 10.2599 10.4476 10.3538 10.3538C10.4476 10.2599 10.5003 10.1327 10.5003 10C10.5003 9.86732 10.4476 9.74007 10.3538 9.64625L9.35375 8.64625C9.25993 8.55243 9.13268 8.49972 9 8.49972C8.86732 8.49972 8.74007 8.55243 8.64625 8.64625C8.55243 8.74007 8.49972 8.86732 8.49972 9C8.49972 9.13268 8.55243 9.25993 8.64625 9.35375L9.64625 10.3538ZM9.64625 17.6462L8.64625 18.6462C8.55243 18.7401 8.49972 18.8673 8.49972 19C8.49972 19.1327 8.55243 19.2599 8.64625 19.3538C8.74007 19.4476 8.86732 19.5003 9 19.5003C9.13268 19.5003 9.25993 19.4476 9.35375 19.3538L10.3538 18.3538C10.4002 18.3073 10.4371 18.2521 10.4622 18.1914C10.4873 18.1308 10.5003 18.0657 10.5003 18C10.5003 17.9343 10.4873 17.8692 10.4622 17.8086C10.4371 17.7479 10.4002 17.6927 10.3538 17.6462C10.3073 17.5998 10.2521 17.5629 10.1914 17.5378C10.1308 17.5127 10.0657 17.4997 10 17.4997C9.9343 17.4997 9.86925 17.5127 9.80855 17.5378C9.74786 17.5629 9.69271 17.5998 9.64625 17.6462ZM18 10.5C18.0657 10.5001 18.1307 10.4872 18.1914 10.4621C18.2521 10.437 18.3073 10.4002 18.3538 10.3538L19.3538 9.35375C19.4476 9.25993 19.5003 9.13268 19.5003 9C19.5003 8.86732 19.4476 8.74007 19.3538 8.64625C19.2599 8.55243 19.1327 8.49972 19 8.49972C18.8673 8.49972 18.7401 8.55243 18.6462 8.64625L17.6462 9.64625C17.5762 9.71618 17.5286 9.8053 17.5092 9.90235C17.4899 9.99939 17.4998 10.1 17.5377 10.1914C17.5756 10.2828 17.6397 10.3609 17.722 10.4159C17.8043 10.4708 17.9011 10.5001 18 10.5ZM18.3538 17.6462C18.2599 17.5524 18.1327 17.4997 18 17.4997C17.8673 17.4997 17.7401 17.5524 17.6462 17.6462C17.5524 17.7401 17.4997 17.8673 17.4997 18C17.4997 18.1327 17.5524 18.2599 17.6462 18.3538L18.6462 19.3538C18.6927 19.4002 18.7479 19.4371 18.8086 19.4622C18.8692 19.4873 18.9343 19.5003 19 19.5003C19.0657 19.5003 19.1308 19.4873 19.1914 19.4622C19.2521 19.4371 19.3073 19.4002 19.3538 19.3538C19.4002 19.3073 19.4371 19.2521 19.4622 19.1914C19.4873 19.1308 19.5003 19.0657 19.5003 19C19.5003 18.9343 19.4873 18.8692 19.4622 18.8086C19.4371 18.7479 19.4002 18.6927 19.3538 18.6462L18.3538 17.6462ZM9 14C9 13.8674 8.94732 13.7402 8.85355 13.6464C8.75979 13.5527 8.63261 13.5 8.5 13.5H7C6.86739 13.5 6.74021 13.5527 6.64645 13.6464C6.55268 13.7402 6.5 13.8674 6.5 14C6.5 14.1326 6.55268 14.2598 6.64645 14.3536C6.74021 14.4473 6.86739 14.5 7 14.5H8.5C8.63261 14.5 8.75979 14.4473 8.85355 14.3536C8.94732 14.2598 9 14.1326 9 14ZM14 19C13.8674 19 13.7402 19.0527 13.6464 19.1464C13.5527 19.2402 13.5 19.3674 13.5 19.5V21C13.5 21.1326 13.5527 21.2598 13.6464 21.3536C13.7402 21.4473 13.8674 21.5 14 21.5C14.1326 21.5 14.2598 21.4473 14.3536 21.3536C14.4473 21.2598 14.5 21.1326 14.5 21V19.5C14.5 19.3674 14.4473 19.2402 14.3536 19.1464C14.2598 19.0527 14.1326 19 14 19ZM21 13.5H19.5C19.3674 13.5 19.2402 13.5527 19.1464 13.6464C19.0527 13.7402 19 13.8674 19 14C19 14.1326 19.0527 14.2598 19.1464 14.3536C19.2402 14.4473 19.3674 14.5 19.5 14.5H21C21.1326 14.5 21.2598 14.4473 21.3536 14.3536C21.4473 14.2598 21.5 14.1326 21.5 14C21.5 13.8674 21.4473 13.7402 21.3536 13.6464C21.2598 13.5527 21.1326 13.5 21 13.5Z" fill="black"/>
</svg>
