<svg width="20" height="22" viewBox="0 0 20 22" fill="none" xmlns="http://www.w3.org/2000/svg">
<path d="M5.69022 15.4785L6.98022 20.3585C7.00758 20.4515 7.00734 20.5503 6.97955 20.6432C6.95176 20.736 6.8976 20.8187 6.82366 20.8813C6.74972 20.9439 6.65919 20.9837 6.56307 20.9958C6.46694 21.0079 6.36937 20.9918 6.28222 20.9495L4.43922 20.1005C4.30217 20.0336 4.15163 19.9988 3.9991 19.999C3.84657 19.9992 3.69611 20.0342 3.55922 20.1015L1.71322 20.9515C1.62606 20.9926 1.52889 21.0076 1.43339 20.9948C1.33789 20.982 1.24813 20.9418 1.17492 20.8792C1.10171 20.8165 1.04816 20.734 1.02071 20.6417C0.993266 20.5493 0.993094 20.451 1.02022 20.3585L2.31022 15.4785" stroke="#053282" stroke-width="2" stroke-linecap="round" stroke-linejoin="round"/>
<path d="M11.0002 21H17.0002C17.5307 21 18.0394 20.7893 18.4145 20.4142C18.7895 20.0391 19.0002 19.5304 19.0002 19V6L14.0002 1H5.00024C4.46981 1 3.9611 1.21071 3.58603 1.58579C3.21096 1.96086 3.00024 2.46957 3.00024 3V6.072" stroke="#053282" stroke-width="2" stroke-linecap="round" stroke-linejoin="round"/>
<path d="M13.0002 1V5C13.0002 5.53043 13.211 6.03914 13.586 6.41421C13.9611 6.78929 14.4698 7 15.0002 7H19.0002" stroke="#053282" stroke-width="2" stroke-linecap="round" stroke-linejoin="round"/>
<path d="M4.00024 16C5.6571 16 7.00024 14.6569 7.00024 13C7.00024 11.3431 5.6571 10 4.00024 10C2.34339 10 1.00024 11.3431 1.00024 13C1.00024 14.6569 2.34339 16 4.00024 16Z" stroke="#053282" stroke-width="2" stroke-linecap="round" stroke-linejoin="round"/>
</svg>
