<svg width="24" height="24" viewBox="0 0 24 24" fill="none" xmlns="http://www.w3.org/2000/svg">
<path d="M0 12C0 8.27247 0 6.4087 0.608964 4.93853C1.42092 2.97831 2.97831 1.42092 4.93853 0.608964C6.4087 0 8.27247 0 12 0C15.7275 0 17.5913 0 19.0615 0.608964C21.0217 1.42092 22.5791 2.97831 23.391 4.93853C24 6.4087 24 8.27247 24 12C24 15.7275 24 17.5913 23.391 19.0615C22.5791 21.0217 21.0217 22.5791 19.0615 23.391C17.5913 24 15.7275 24 12 24C8.27247 24 6.4087 24 4.93853 23.391C2.97831 22.5791 1.42092 21.0217 0.608964 19.0615C0 17.5913 0 15.7275 0 12Z" fill="#E6F1FD"/>
<path d="M18.4324 17.2497C17.4806 15.6041 16.0137 14.4241 14.3018 13.8647C15.1486 13.3607 15.8065 12.5925 16.1744 11.6784C16.5424 10.7642 16.6001 9.7545 16.3387 8.80435C16.0773 7.85419 15.5112 7.01612 14.7274 6.41883C13.9436 5.82153 12.9854 5.49805 11.9999 5.49805C11.0145 5.49805 10.0563 5.82153 9.27244 6.41883C8.48863 7.01612 7.92255 7.85419 7.66114 8.80435C7.39973 9.7545 7.45744 10.7642 7.82542 11.6784C8.19339 12.5925 8.85128 13.3607 9.69805 13.8647C7.98618 14.4235 6.5193 15.6035 5.56743 17.2497C5.53252 17.3067 5.50936 17.37 5.49933 17.436C5.4893 17.502 5.49259 17.5694 5.509 17.6341C5.52542 17.6988 5.55463 17.7596 5.59492 17.8128C5.63521 17.8661 5.68575 17.9107 5.74357 17.9441C5.80138 17.9775 5.8653 17.999 5.93156 18.0073C5.99781 18.0156 6.06505 18.0105 6.12931 17.9924C6.19358 17.9743 6.25356 17.9435 6.30573 17.9018C6.3579 17.8601 6.40119 17.8084 6.43305 17.7497C7.61055 15.7147 9.6918 14.4997 11.9999 14.4997C14.3081 14.4997 16.3893 15.7147 17.5668 17.7497C17.5987 17.8084 17.642 17.8601 17.6941 17.9018C17.7463 17.9435 17.8063 17.9743 17.8705 17.9924C17.9348 18.0105 18.002 18.0156 18.0683 18.0073C18.1345 17.999 18.1985 17.9775 18.2563 17.9441C18.3141 17.9107 18.3646 17.8661 18.4049 17.8128C18.4452 17.7596 18.4744 17.6988 18.4908 17.6341C18.5073 17.5694 18.5106 17.502 18.5005 17.436C18.4905 17.37 18.4673 17.3067 18.4324 17.2497ZM8.49993 9.99975C8.49993 9.30751 8.7052 8.63082 9.08978 8.05525C9.47437 7.47968 10.021 7.03108 10.6605 6.76617C11.3001 6.50126 12.0038 6.43195 12.6827 6.567C13.3617 6.70205 13.9853 7.03539 14.4748 7.52487C14.9643 8.01436 15.2976 8.638 15.4327 9.31693C15.5677 9.99586 15.4984 10.6996 15.2335 11.3391C14.9686 11.9787 14.52 12.5253 13.9444 12.9099C13.3688 13.2945 12.6922 13.4997 11.9999 13.4997C11.072 13.4988 10.1823 13.1297 9.52615 12.4735C8.86999 11.8174 8.50092 10.9277 8.49993 9.99975Z" fill="black"/>
</svg>
