<svg width="16" height="16" viewBox="0 0 16 16" fill="none" xmlns="http://www.w3.org/2000/svg">
<path d="M12.9999 12H2.99992C2.91241 11.9995 2.82657 11.976 2.75098 11.9319C2.67539 11.8878 2.61269 11.8246 2.56916 11.7487C2.52564 11.6728 2.5028 11.5868 2.50293 11.4992C2.50306 11.4117 2.52616 11.3258 2.56992 11.25C2.9818 10.5375 3.49992 8.73812 3.49992 6.5C3.49992 5.30653 3.97403 4.16193 4.81794 3.31802C5.66186 2.47411 6.80645 2 7.99992 2C9.1934 2 10.338 2.47411 11.1819 3.31802C12.0258 4.16193 12.4999 5.30653 12.4999 6.5C12.4999 8.73875 13.0187 10.5375 13.4312 11.25C13.475 11.3259 13.4981 11.4119 13.4982 11.4996C13.4982 11.5872 13.4753 11.6733 13.4316 11.7492C13.3879 11.8252 13.3251 11.8883 13.2493 11.9324C13.1735 11.9764 13.0875 11.9997 12.9999 12Z" fill="black" fill-opacity="0.04"/>
<path d="M13.8623 10.9963C13.5154 10.3988 12.9998 8.70813 12.9998 6.5C12.9998 5.17392 12.473 3.90215 11.5353 2.96447C10.5976 2.02678 9.32585 1.5 7.99976 1.5C6.67368 1.5 5.40191 2.02678 4.46423 2.96447C3.52655 3.90215 2.99976 5.17392 2.99976 6.5C2.99976 8.70875 2.48351 10.3988 2.13664 10.9963C2.04806 11.1482 2.0011 11.3207 2.00049 11.4966C1.99989 11.6724 2.04566 11.8453 2.1332 11.9978C2.22074 12.1503 2.34694 12.277 2.49908 12.3652C2.65122 12.4534 2.82392 12.4999 2.99976 12.5H5.55039C5.66575 13.0645 5.97253 13.5718 6.41885 13.9361C6.86517 14.3004 7.42362 14.4994 7.99976 14.4994C8.5759 14.4994 9.13436 14.3004 9.58068 13.9361C10.027 13.5718 10.3338 13.0645 10.4491 12.5H12.9998C13.1756 12.4998 13.3482 12.4532 13.5002 12.365C13.6523 12.2768 13.7784 12.15 13.8659 11.9975C13.9533 11.845 13.999 11.6722 13.9984 11.4964C13.9978 11.3206 13.9508 11.1481 13.8623 10.9963ZM7.99976 13.5C7.68965 13.4999 7.38719 13.4037 7.13401 13.2246C6.88083 13.0455 6.68938 12.7924 6.58601 12.5H9.41351C9.31014 12.7924 9.11869 13.0455 8.86552 13.2246C8.61234 13.4037 8.30988 13.4999 7.99976 13.5ZM2.99976 11.5C3.48101 10.6725 3.99976 8.755 3.99976 6.5C3.99976 5.43913 4.42119 4.42172 5.17134 3.67157C5.92148 2.92143 6.9389 2.5 7.99976 2.5C9.06063 2.5 10.078 2.92143 10.8282 3.67157C11.5783 4.42172 11.9998 5.43913 11.9998 6.5C11.9998 8.75313 12.5173 10.6706 12.9998 11.5H2.99976Z" fill="black"/>
</svg>
