<svg width="41" height="40" viewBox="0 0 41 40" fill="none" xmlns="http://www.w3.org/2000/svg">
<path d="M30.5 33.334C30.5 30.6818 29.4464 28.1383 27.5711 26.2629C25.6957 24.3876 23.1522 23.334 20.5 23.334C17.8478 23.334 15.3043 24.3876 13.4289 26.2629C11.5536 28.1383 10.5 30.6818 10.5 33.334" stroke="#333333" stroke-linecap="round" stroke-linejoin="round"/>
<path d="M20.5002 23.3333C24.1821 23.3333 27.1668 20.3486 27.1668 16.6667C27.1668 12.9848 24.1821 10 20.5002 10C16.8183 10 13.8335 12.9848 13.8335 16.6667C13.8335 20.3486 16.8183 23.3333 20.5002 23.3333Z" stroke="#333333" stroke-linecap="round" stroke-linejoin="round"/>
<path d="M20.5002 36.6673C29.7049 36.6673 37.1668 29.2054 37.1668 20.0007C37.1668 10.7959 29.7049 3.33398 20.5002 3.33398C11.2954 3.33398 3.8335 10.7959 3.8335 20.0007C3.8335 29.2054 11.2954 36.6673 20.5002 36.6673Z" stroke="#333333" stroke-linecap="round" stroke-linejoin="round"/>
</svg>
